<svg width="20" height="20" viewBox="0 0 20 20" fill="none" xmlns="http://www.w3.org/2000/svg">
<g clip-path="url(#clip0_897_681)">
<path d="M13.3333 6.66678C13.177 6.51055 12.9651 6.42279 12.7441 6.42279C12.5231 6.42279 12.3112 6.51055 12.1549 6.66678L9.99993 8.82178L7.84494 6.66678C7.68777 6.51498 7.47727 6.43099 7.25877 6.43288C7.04027 6.43478 6.83126 6.52242 6.67676 6.67693C6.52225 6.83144 6.43461 7.04045 6.43271 7.25895C6.43081 7.47744 6.51481 7.68794 6.6666 7.84511L8.8216 10.0001L6.6666 12.1551C6.51481 12.3123 6.43081 12.5228 6.43271 12.7413C6.43461 12.9598 6.52225 13.1688 6.67676 13.3233C6.83126 13.4778 7.04027 13.5654 7.25877 13.5673C7.47727 13.5692 7.68777 13.4852 7.84494 13.3334L9.99993 11.1784L12.1549 13.3334C12.3121 13.4852 12.5226 13.5692 12.7411 13.5673C12.9596 13.5654 13.1686 13.4778 13.3231 13.3233C13.4776 13.1688 13.5653 12.9598 13.5672 12.7413C13.5691 12.5228 13.4851 12.3123 13.3333 12.1551L11.1783 10.0001L13.3333 7.84511C13.4895 7.68884 13.5772 7.47692 13.5772 7.25595C13.5772 7.03498 13.4895 6.82305 13.3333 6.66678Z" fill="#F28705"/>
<path d="M10 0C8.02219 0 6.08879 0.58649 4.4443 1.6853C2.79981 2.78412 1.51809 4.3459 0.761209 6.17317C0.00433286 8.00043 -0.193701 10.0111 0.192152 11.9509C0.578004 13.8907 1.53041 15.6725 2.92894 17.0711C4.32746 18.4696 6.10929 19.422 8.0491 19.8079C9.98891 20.1937 11.9996 19.9957 13.8268 19.2388C15.6541 18.4819 17.2159 17.2002 18.3147 15.5557C19.4135 13.9112 20 11.9778 20 10C19.9971 7.34872 18.9426 4.80684 17.0679 2.9321C15.1932 1.05736 12.6513 0.00286757 10 0V0ZM10 18.3333C8.35183 18.3333 6.74066 17.8446 5.37025 16.9289C3.99984 16.0132 2.93174 14.7117 2.30101 13.189C1.67028 11.6663 1.50525 9.99076 1.82679 8.37425C2.14834 6.75774 2.94201 5.27288 4.10745 4.10744C5.27289 2.94201 6.75774 2.14833 8.37425 1.82679C9.99076 1.50525 11.6663 1.67027 13.189 2.301C14.7118 2.93173 16.0132 3.99984 16.9289 5.37025C17.8446 6.74066 18.3333 8.35182 18.3333 10C18.3309 12.2094 17.4522 14.3276 15.8899 15.8899C14.3276 17.4522 12.2094 18.3309 10 18.3333Z" fill="#F28705"/>
</g>
<defs>
<clipPath id="clip0_897_681">
<rect width="20" height="20" fill="white"/>
</clipPath>
</defs>
</svg>
