<svg width="15" height="15" viewBox="0 0 15 15" fill="none" xmlns="http://www.w3.org/2000/svg">
<g clip-path="url(#clip0_293_529)">
<path d="M14.8169 13.9331L11.0862 10.2025C12.1029 8.95911 12.6027 7.37255 12.4824 5.77096C12.3621 4.16938 11.6307 2.67532 10.4397 1.59781C9.24871 0.520305 7.68911 -0.0582066 6.08351 -0.0180617C4.47792 0.0220832 2.94918 0.677813 1.81349 1.81349C0.677813 2.94918 0.0220832 4.47792 -0.0180617 6.08351C-0.0582066 7.68911 0.520305 9.24871 1.59781 10.4397C2.67532 11.6307 4.16938 12.3621 5.77096 12.4824C7.37255 12.6027 8.95911 12.1029 10.2025 11.0862L13.9331 14.8169C14.051 14.9307 14.2089 14.9937 14.3727 14.9923C14.5366 14.9909 14.6934 14.9251 14.8093 14.8093C14.9251 14.6934 14.9909 14.5366 14.9923 14.3727C14.9937 14.2089 14.9307 14.051 14.8169 13.9331ZM6.24999 11.25C5.26108 11.25 4.29438 10.9567 3.47214 10.4073C2.64989 9.85793 2.00903 9.07704 1.63059 8.16341C1.25215 7.24978 1.15313 6.24444 1.34606 5.27454C1.53899 4.30463 2.01519 3.41372 2.71445 2.71445C3.41372 2.01519 4.30463 1.53899 5.27454 1.34606C6.24444 1.15313 7.24977 1.25215 8.1634 1.63059C9.07704 2.00903 9.85793 2.64989 10.4073 3.47214C10.9567 4.29438 11.25 5.26108 11.25 6.24999C11.2485 7.57561 10.7212 8.84652 9.78388 9.78388C8.84652 10.7212 7.57561 11.2485 6.24999 11.25Z" fill="black"/>
</g>
<defs>
<clipPath id="clip0_293_529">
<rect width="15" height="15" fill="white"/>
</clipPath>
</defs>
</svg>
