<svg width="30" height="30" viewBox="0 0 32 32" fill="none" xmlns="http://www.w3.org/2000/svg">
<g clip-path="url(#clip0_896_317)">
<path d="M16 15.9999C17.5823 15.9999 19.129 15.5308 20.4446 14.6517C21.7602 13.7726 22.7855 12.5232 23.391 11.0614C23.9965 9.5996 24.155 7.99107 23.8463 6.43922C23.5376 4.88737 22.7757 3.46191 21.6569 2.34309C20.538 1.22427 19.1126 0.462342 17.5607 0.15366C16.0089 -0.155021 14.4003 0.00340525 12.9385 0.608906C11.4767 1.21441 10.2273 2.23979 9.34824 3.55538C8.46919 4.87097 8 6.41769 8 7.99994C8.00212 10.121 8.84565 12.1546 10.3455 13.6545C11.8453 15.1543 13.8789 15.9978 16 15.9999ZM16 2.66661C17.0548 2.66661 18.086 2.9794 18.963 3.56544C19.8401 4.15147 20.5237 4.98443 20.9274 5.95896C21.331 6.9335 21.4366 8.00586 21.2309 9.04042C21.0251 10.075 20.5171 11.0253 19.7712 11.7712C19.0254 12.5171 18.075 13.025 17.0405 13.2308C16.0059 13.4366 14.9336 13.331 13.959 12.9273C12.9845 12.5236 12.1515 11.84 11.5655 10.963C10.9795 10.0859 10.6667 9.05478 10.6667 7.99994C10.6667 6.58545 11.2286 5.2289 12.2288 4.22871C13.229 3.22851 14.5855 2.66661 16 2.66661Z" fill="#F28705"/>
<path d="M16 18.6675C12.8185 18.671 9.76828 19.9364 7.51861 22.1861C5.26894 24.4358 4.00352 27.486 3.99999 30.6675C3.99999 31.0211 4.14047 31.3602 4.39052 31.6103C4.64057 31.8603 4.9797 32.0008 5.33333 32.0008C5.68695 32.0008 6.02609 31.8603 6.27613 31.6103C6.52618 31.3602 6.66666 31.0211 6.66666 30.6675C6.66666 28.1921 7.64999 25.8182 9.40033 24.0678C11.1507 22.3175 13.5246 21.3341 16 21.3341C18.4753 21.3341 20.8493 22.3175 22.5997 24.0678C24.35 25.8182 25.3333 28.1921 25.3333 30.6675C25.3333 31.0211 25.4738 31.3602 25.7239 31.6103C25.9739 31.8603 26.313 32.0008 26.6667 32.0008C27.0203 32.0008 27.3594 31.8603 27.6095 31.6103C27.8595 31.3602 28 31.0211 28 30.6675C27.9965 27.486 26.731 24.4358 24.4814 22.1861C22.2317 19.9364 19.1815 18.671 16 18.6675Z" fill="#F28705"/>
</g>
<defs>
<clipPath id="clip0_896_317">
<rect width="32" height="32" fill="white"/>
</clipPath>
</defs>
</svg>
