<svg width="30" height="30" viewBox="0 0 30 30" fill="none" xmlns="http://www.w3.org/2000/svg">
<g clip-path="url(#clip0_712_1092)">
<path d="M15.0001 7.5C14.0112 7.5 13.0445 7.79324 12.2223 8.34265C11.4 8.89206 10.7592 9.67295 10.3807 10.5866C10.0023 11.5002 9.90327 12.5055 10.0962 13.4755C10.2891 14.4454 10.7653 15.3363 11.4646 16.0355C12.1639 16.7348 13.0548 17.211 14.0247 17.4039C14.9946 17.5969 15.9999 17.4978 16.9135 17.1194C17.8272 16.741 18.6081 16.1001 19.1575 15.2779C19.7069 14.4556 20.0001 13.4889 20.0001 12.5C20.0001 11.1739 19.4733 9.90215 18.5357 8.96447C17.598 8.02678 16.3262 7.5 15.0001 7.5ZM15.0001 15C14.5057 15 14.0223 14.8534 13.6112 14.5787C13.2001 14.304 12.8796 13.9135 12.6904 13.4567C12.5012 12.9999 12.4517 12.4972 12.5482 12.0123C12.6446 11.5273 12.8827 11.0819 13.2324 10.7322C13.582 10.3826 14.0274 10.1445 14.5124 10.048C14.9974 9.95157 15.5 10.0011 15.9568 10.1903C16.4136 10.3795 16.8041 10.7 17.0788 11.1111C17.3535 11.5222 17.5001 12.0055 17.5001 12.5C17.5001 13.163 17.2367 13.7989 16.7679 14.2678C16.2991 14.7366 15.6632 15 15.0001 15Z" fill="#F2F2F2"/>
<path d="M14.9999 30.0004C13.9473 30.0057 12.9088 29.7589 11.9712 29.2804C11.0337 28.802 10.2244 28.1058 9.61115 27.2504C4.8474 20.6791 2.43115 15.7391 2.43115 12.5666C2.43115 9.23316 3.75536 6.03625 6.11245 3.67915C8.46955 1.32205 11.6665 -0.00214958 14.9999 -0.00214958C18.3333 -0.00214958 21.5303 1.32205 23.8874 3.67915C26.2444 6.03625 27.5687 9.23316 27.5687 12.5666C27.5687 15.7391 25.1524 20.6791 20.3887 27.2504C19.7754 28.1058 18.9661 28.802 18.0286 29.2804C17.091 29.7589 16.0525 30.0057 14.9999 30.0004ZM14.9999 2.7266C12.3904 2.72958 9.88867 3.76751 8.04349 5.61269C6.19831 7.45787 5.16038 9.95962 5.1574 12.5691C5.1574 15.0816 7.52365 19.7279 11.8187 25.6516C12.1833 26.1538 12.6616 26.5626 13.2145 26.8444C13.7675 27.1263 14.3793 27.2732 14.9999 27.2732C15.6205 27.2732 16.2323 27.1263 16.7853 26.8444C17.3382 26.5626 17.8165 26.1538 18.1812 25.6516C22.4762 19.7279 24.8424 15.0816 24.8424 12.5691C24.8394 9.95962 23.8015 7.45787 21.9563 5.61269C20.1111 3.76751 17.6094 2.72958 14.9999 2.7266Z" fill="#F2F2F2"/>
</g>
<defs>
<clipPath id="clip0_712_1092">
<rect width="30" height="30" fill="white"/>
</clipPath>
</defs>
</svg>
