<svg width="30" height="30" viewBox="0 0 30 30" fill="none" xmlns="http://www.w3.org/2000/svg">
<path d="M15.019 0C6.75924 0 0.03523 6.71756 0.0322297 14.9766C0.0307296 17.6166 0.722274 20.1938 2.0334 22.4648L0 30L7.8494 28.1455C10.0381 29.3395 12.502 29.9663 15.0103 29.9678H15.0161C23.2744 29.9678 29.9955 23.2487 30 14.9912C30.003 10.9877 28.446 7.2236 25.6168 4.3916C22.7875 1.5611 19.0274 0.0015 15.019 0ZM15.0161 3C18.2204 3.0015 21.2317 4.2507 23.4955 6.5127C25.7592 8.77769 27.0027 11.7873 26.9997 14.9883C26.9967 21.5943 21.6228 26.9678 15.0132 26.9678C13.0135 26.9663 11.0327 26.4642 9.28802 25.5117L8.27717 24.9609L7.16085 25.2246L4.20744 25.9219L4.92822 23.2441L5.25344 22.043L4.63229 20.9648C3.58519 19.1528 3.03102 17.0811 3.03252 14.9766C3.03552 8.37356 8.41097 3 15.0161 3ZM9.71579 8.0625C9.46527 8.0625 9.0602 8.15625 8.71667 8.53125C8.37314 8.90475 7.40404 9.80937 7.40404 11.6514C7.40404 13.4934 8.74597 15.2739 8.93349 15.5244C9.11951 15.7734 11.5237 19.6729 15.3296 21.1729C18.4919 22.4194 19.1342 22.1734 19.8213 22.1104C20.5083 22.0489 22.0378 21.2065 22.3498 20.332C22.6619 19.4575 22.6626 18.7053 22.5696 18.5508C22.4766 18.3948 22.2268 18.3018 21.8517 18.1143C21.4782 17.9268 19.6374 17.0229 19.2939 16.8984C18.9503 16.7739 18.6991 16.7109 18.45 17.0859C18.201 17.4609 17.4854 18.3018 17.2663 18.5508C17.0473 18.8013 16.8298 18.835 16.4547 18.6475C16.0797 18.4585 14.8739 18.0621 13.4427 16.7871C12.3296 15.7956 11.5785 14.5723 11.3595 14.1973C11.142 13.8238 11.339 13.6186 11.5265 13.4326C11.6945 13.2646 11.8986 12.9954 12.0861 12.7764C12.2722 12.5574 12.3367 12.4013 12.4612 12.1523C12.5857 11.9033 12.522 11.6836 12.4289 11.4961C12.3359 11.3086 11.6076 9.45975 11.2745 8.71875C10.994 8.09625 10.6977 8.08179 10.4307 8.07129C10.2132 8.06229 9.96482 8.0625 9.71579 8.0625Z" fill="#F2F2F2"/>
</svg>
